<mxfile host="app.diagrams.net" agent="Mozilla/5.0 (Windows NT 10.0; Win64; x64) AppleWebKit/537.36 (KHTML, like Gecko) Chrome/131.0.0.0 Safari/537.36" version="26.0.6">
  <diagram name="페이지-1" id="796mjTPCSiyR9tATB4kB">
    <mxGraphModel dx="2390" dy="1300" grid="1" gridSize="10" guides="1" tooltips="1" connect="1" arrows="1" fold="1" page="1" pageScale="1" pageWidth="827" pageHeight="1169" math="0" shadow="0">
      <root>
        <mxCell id="0" />
        <mxCell id="1" parent="0" />
        <mxCell id="XIX7RMYme88-_ZhaqlDN-31" value="" style="rounded=0;whiteSpace=wrap;html=1;" vertex="1" parent="1">
          <mxGeometry x="47" y="5" width="780" height="1160" as="geometry" />
        </mxCell>
        <mxCell id="XIX7RMYme88-_ZhaqlDN-6" style="edgeStyle=orthogonalEdgeStyle;rounded=0;orthogonalLoop=1;jettySize=auto;html=1;" edge="1" parent="1" source="XIX7RMYme88-_ZhaqlDN-2" target="XIX7RMYme88-_ZhaqlDN-4">
          <mxGeometry relative="1" as="geometry" />
        </mxCell>
        <mxCell id="XIX7RMYme88-_ZhaqlDN-2" value="시작" style="strokeWidth=2;html=1;shape=mxgraph.flowchart.terminator;whiteSpace=wrap;" vertex="1" parent="1">
          <mxGeometry x="300" y="210" width="100" height="60" as="geometry" />
        </mxCell>
        <mxCell id="XIX7RMYme88-_ZhaqlDN-3" value="끝" style="strokeWidth=2;html=1;shape=mxgraph.flowchart.terminator;whiteSpace=wrap;" vertex="1" parent="1">
          <mxGeometry x="300" y="1010" width="100" height="60" as="geometry" />
        </mxCell>
        <mxCell id="XIX7RMYme88-_ZhaqlDN-8" style="edgeStyle=orthogonalEdgeStyle;rounded=0;orthogonalLoop=1;jettySize=auto;html=1;entryX=0.5;entryY=0;entryDx=0;entryDy=0;" edge="1" parent="1" source="XIX7RMYme88-_ZhaqlDN-4" target="XIX7RMYme88-_ZhaqlDN-7">
          <mxGeometry relative="1" as="geometry">
            <mxPoint x="350" y="430" as="targetPoint" />
          </mxGeometry>
        </mxCell>
        <mxCell id="XIX7RMYme88-_ZhaqlDN-4" value="로그인 페이지" style="strokeWidth=2;html=1;shape=mxgraph.flowchart.document2;whiteSpace=wrap;size=0.25;" vertex="1" parent="1">
          <mxGeometry x="300" y="320" width="100" height="60" as="geometry" />
        </mxCell>
        <mxCell id="XIX7RMYme88-_ZhaqlDN-5" value="로그인 FLOW CHART" style="text;strokeColor=none;align=center;fillColor=none;html=1;verticalAlign=middle;whiteSpace=wrap;rounded=0;fontSize=30;" vertex="1" parent="1">
          <mxGeometry x="180" y="20" width="330" height="50" as="geometry" />
        </mxCell>
        <mxCell id="XIX7RMYme88-_ZhaqlDN-7" value="IDPW 입력" style="shape=parallelogram;html=1;strokeWidth=2;perimeter=parallelogramPerimeter;whiteSpace=wrap;rounded=1;arcSize=12;size=0.23;" vertex="1" parent="1">
          <mxGeometry x="300" y="430" width="100" height="60" as="geometry" />
        </mxCell>
        <mxCell id="XIX7RMYme88-_ZhaqlDN-10" value="TBL_USER" style="strokeWidth=2;html=1;shape=mxgraph.flowchart.database;whiteSpace=wrap;" vertex="1" parent="1">
          <mxGeometry x="520" y="425" width="100" height="70" as="geometry" />
        </mxCell>
        <mxCell id="XIX7RMYme88-_ZhaqlDN-20" value="" style="edgeStyle=orthogonalEdgeStyle;rounded=0;orthogonalLoop=1;jettySize=auto;html=1;" edge="1" parent="1" source="XIX7RMYme88-_ZhaqlDN-11" target="XIX7RMYme88-_ZhaqlDN-19">
          <mxGeometry relative="1" as="geometry" />
        </mxCell>
        <mxCell id="XIX7RMYme88-_ZhaqlDN-11" value="동일ID가&lt;div&gt;있는지?&lt;/div&gt;" style="strokeWidth=2;html=1;shape=mxgraph.flowchart.decision;whiteSpace=wrap;" vertex="1" parent="1">
          <mxGeometry x="515" y="570" width="110" height="110" as="geometry" />
        </mxCell>
        <mxCell id="XIX7RMYme88-_ZhaqlDN-12" style="edgeStyle=orthogonalEdgeStyle;rounded=0;orthogonalLoop=1;jettySize=auto;html=1;entryX=0;entryY=0.5;entryDx=0;entryDy=0;entryPerimeter=0;" edge="1" parent="1" source="XIX7RMYme88-_ZhaqlDN-7" target="XIX7RMYme88-_ZhaqlDN-10">
          <mxGeometry relative="1" as="geometry" />
        </mxCell>
        <mxCell id="XIX7RMYme88-_ZhaqlDN-13" style="edgeStyle=orthogonalEdgeStyle;rounded=0;orthogonalLoop=1;jettySize=auto;html=1;entryX=0.5;entryY=0;entryDx=0;entryDy=0;entryPerimeter=0;" edge="1" parent="1" source="XIX7RMYme88-_ZhaqlDN-10" target="XIX7RMYme88-_ZhaqlDN-11">
          <mxGeometry relative="1" as="geometry" />
        </mxCell>
        <mxCell id="XIX7RMYme88-_ZhaqlDN-14" value="" style="endArrow=classic;html=1;rounded=0;entryX=1;entryY=0.5;entryDx=0;entryDy=0;entryPerimeter=0;exitX=1;exitY=0.5;exitDx=0;exitDy=0;exitPerimeter=0;" edge="1" parent="1" source="XIX7RMYme88-_ZhaqlDN-11" target="XIX7RMYme88-_ZhaqlDN-4">
          <mxGeometry width="50" height="50" relative="1" as="geometry">
            <mxPoint x="660" y="620" as="sourcePoint" />
            <mxPoint x="480" y="710" as="targetPoint" />
            <Array as="points">
              <mxPoint x="790" y="625" />
              <mxPoint x="790" y="470" />
              <mxPoint x="790" y="350" />
            </Array>
          </mxGeometry>
        </mxCell>
        <mxCell id="XIX7RMYme88-_ZhaqlDN-15" value="NO" style="text;html=1;align=center;verticalAlign=middle;resizable=0;points=[];autosize=1;strokeColor=none;fillColor=none;" vertex="1" parent="1">
          <mxGeometry x="585" y="570" width="40" height="30" as="geometry" />
        </mxCell>
        <mxCell id="XIX7RMYme88-_ZhaqlDN-16" value="YES" style="text;html=1;align=center;verticalAlign=middle;resizable=0;points=[];autosize=1;strokeColor=none;fillColor=none;" vertex="1" parent="1">
          <mxGeometry x="580" y="658" width="50" height="30" as="geometry" />
        </mxCell>
        <mxCell id="XIX7RMYme88-_ZhaqlDN-17" value="&lt;p style=&quot;margin:0px;margin-top:4px;text-align:center;&quot;&gt;&lt;b&gt;MESSAGE&lt;/b&gt;&lt;/p&gt;&lt;hr size=&quot;1&quot; style=&quot;border-style:solid;&quot;&gt;&lt;div style=&quot;height:2px;&quot;&gt;&lt;/div&gt;" style="verticalAlign=top;align=left;overflow=fill;html=1;whiteSpace=wrap;" vertex="1" parent="1">
          <mxGeometry x="640" y="552" width="140" height="68" as="geometry" />
        </mxCell>
        <mxCell id="XIX7RMYme88-_ZhaqlDN-18" value="동일한 ID가 없습니다." style="text;html=1;align=center;verticalAlign=middle;resizable=0;points=[];autosize=1;strokeColor=none;fillColor=none;" vertex="1" parent="1">
          <mxGeometry x="640" y="580" width="140" height="30" as="geometry" />
        </mxCell>
        <mxCell id="XIX7RMYme88-_ZhaqlDN-27" style="edgeStyle=orthogonalEdgeStyle;rounded=0;orthogonalLoop=1;jettySize=auto;html=1;entryX=1;entryY=0.5;entryDx=0;entryDy=0;" edge="1" parent="1" source="XIX7RMYme88-_ZhaqlDN-19" target="XIX7RMYme88-_ZhaqlDN-26">
          <mxGeometry relative="1" as="geometry" />
        </mxCell>
        <mxCell id="XIX7RMYme88-_ZhaqlDN-19" value="패스워드&lt;div&gt;일치하는지?&lt;/div&gt;" style="strokeWidth=2;html=1;shape=mxgraph.flowchart.decision;whiteSpace=wrap;" vertex="1" parent="1">
          <mxGeometry x="517.5" y="760" width="105" height="110" as="geometry" />
        </mxCell>
        <mxCell id="XIX7RMYme88-_ZhaqlDN-22" value="" style="endArrow=none;html=1;rounded=0;exitX=1;exitY=0.5;exitDx=0;exitDy=0;exitPerimeter=0;" edge="1" parent="1" source="XIX7RMYme88-_ZhaqlDN-19">
          <mxGeometry width="50" height="50" relative="1" as="geometry">
            <mxPoint x="700" y="820" as="sourcePoint" />
            <mxPoint x="790" y="620" as="targetPoint" />
            <Array as="points">
              <mxPoint x="790" y="815" />
            </Array>
          </mxGeometry>
        </mxCell>
        <mxCell id="XIX7RMYme88-_ZhaqlDN-23" value="NO" style="text;html=1;align=center;verticalAlign=middle;resizable=0;points=[];autosize=1;strokeColor=none;fillColor=none;" vertex="1" parent="1">
          <mxGeometry x="585" y="760" width="40" height="30" as="geometry" />
        </mxCell>
        <mxCell id="XIX7RMYme88-_ZhaqlDN-24" value="&lt;p style=&quot;margin:0px;margin-top:4px;text-align:center;&quot;&gt;&lt;b&gt;MESSAGE&lt;/b&gt;&lt;/p&gt;&lt;hr size=&quot;1&quot; style=&quot;border-style:solid;&quot;&gt;&lt;div style=&quot;height:2px;&quot;&gt;&lt;/div&gt;" style="verticalAlign=top;align=left;overflow=fill;html=1;whiteSpace=wrap;" vertex="1" parent="1">
          <mxGeometry x="640" y="741" width="140" height="68" as="geometry" />
        </mxCell>
        <mxCell id="XIX7RMYme88-_ZhaqlDN-25" value="패스워드가 일치하지&lt;div&gt;않습니다.&lt;/div&gt;" style="text;html=1;align=center;verticalAlign=middle;resizable=0;points=[];autosize=1;strokeColor=none;fillColor=none;" vertex="1" parent="1">
          <mxGeometry x="645" y="765" width="130" height="40" as="geometry" />
        </mxCell>
        <mxCell id="XIX7RMYme88-_ZhaqlDN-26" value="로그인 처리" style="rounded=0;whiteSpace=wrap;html=1;" vertex="1" parent="1">
          <mxGeometry x="290" y="785" width="120" height="60" as="geometry" />
        </mxCell>
        <mxCell id="XIX7RMYme88-_ZhaqlDN-28" style="edgeStyle=orthogonalEdgeStyle;rounded=0;orthogonalLoop=1;jettySize=auto;html=1;entryX=0.5;entryY=0;entryDx=0;entryDy=0;entryPerimeter=0;" edge="1" parent="1" source="XIX7RMYme88-_ZhaqlDN-26" target="XIX7RMYme88-_ZhaqlDN-3">
          <mxGeometry relative="1" as="geometry" />
        </mxCell>
        <mxCell id="XIX7RMYme88-_ZhaqlDN-29" value="&lt;p style=&quot;margin:0px;margin-top:4px;text-align:center;&quot;&gt;&lt;b&gt;MESSAGE&lt;/b&gt;&lt;/p&gt;&lt;hr size=&quot;1&quot; style=&quot;border-style:solid;&quot;&gt;&lt;div style=&quot;height:2px;&quot;&gt;&lt;/div&gt;" style="verticalAlign=top;align=left;overflow=fill;html=1;whiteSpace=wrap;" vertex="1" parent="1">
          <mxGeometry x="170" y="890" width="150" height="68" as="geometry" />
        </mxCell>
        <mxCell id="XIX7RMYme88-_ZhaqlDN-30" value="로그인 완료!&lt;div&gt;메인페이지로 이동합니다.&lt;/div&gt;" style="text;html=1;align=center;verticalAlign=middle;resizable=0;points=[];autosize=1;strokeColor=none;fillColor=none;" vertex="1" parent="1">
          <mxGeometry x="165" y="918" width="160" height="40" as="geometry" />
        </mxCell>
      </root>
    </mxGraphModel>
  </diagram>
</mxfile>
